<svg width="92" height="120" viewBox="0 0 92 120" fill="none" xmlns="http://www.w3.org/2000/svg">
<g clip-path="url(#clip0_205_4075)">
<path d="M88.3848 60.0714L88.3278 25.5619C88.3278 17.6011 83.1282 11.1489 76.7045 11.1489L19.233 11.1489C12.8188 11.1489 7.60962 17.6011 7.60962 25.5619L7.60962 78.6972H7.67604L7.67604 95.5392C7.67604 103.984 12.8852 110.825 19.2994 110.825L76.7709 110.825C83.1946 110.825 88.3943 103.984 88.3943 95.5392V60.0714H88.3848Z" fill="white" stroke="#FFA7A7" stroke-miterlimit="10"/>
<path d="M91.5256 60.0714L91.4592 25.5619C91.4592 17.6011 86.2595 11.1489 79.8359 11.1489L22.3643 11.1489C15.9501 11.1489 10.741 17.6011 10.741 25.5619L10.741 78.6972H10.8169L10.8169 95.5392C10.8169 103.984 16.0165 110.825 22.4307 110.825L79.9118 110.825C86.326 110.825 91.5256 103.984 91.5256 95.5392V60.0714Z" fill="white" stroke="#FFA7A7" stroke-miterlimit="10"/>
<path d="M32.8679 3.50119L30.4104 3.50119V11.5854H32.8679V3.50119Z" fill="white" stroke="#FFA7A7" stroke-miterlimit="10"/>
<path d="M74.0952 3.50119L71.6377 3.50119V11.5854H74.0952V3.50119Z" fill="white" stroke="#FFA7A7" stroke-miterlimit="10"/>
<path d="M77.1507 0.474426L26.9378 0.474426C25.6644 0.474426 24.6321 1.5046 24.6321 2.77538C24.6321 4.04615 25.6644 5.07632 26.9378 5.07632L77.1507 5.07632C78.424 5.07632 79.4563 4.04615 79.4563 2.77538C79.4563 1.5046 78.424 0.474426 77.1507 0.474426Z" fill="white" stroke="#FFA7A7" stroke-miterlimit="10"/>
<path d="M30.5717 118.738C33.8364 118.738 36.483 116.092 36.483 112.827C36.483 109.562 33.8364 106.916 30.5717 106.916C27.307 106.916 24.6604 109.562 24.6604 112.827C24.6604 116.092 27.307 118.738 30.5717 118.738Z" fill="white"/>
<path d="M30.5717 118.738C33.8364 118.738 36.483 116.092 36.483 112.827C36.483 109.562 33.8364 106.916 30.5717 106.916C27.307 106.916 24.6604 109.562 24.6604 112.827C24.6604 116.092 27.307 118.738 30.5717 118.738Z" stroke="#FFA7A7" stroke-miterlimit="10"/>
<path d="M73.0231 118.738C76.2878 118.738 78.9344 116.092 78.9344 112.827C78.9344 109.562 76.2878 106.916 73.0231 106.916C69.7584 106.916 67.1118 109.562 67.1118 112.827C67.1118 116.092 69.7584 118.738 73.0231 118.738Z" fill="white"/>
<path d="M73.0231 118.738C76.2878 118.738 78.9344 116.092 78.9344 112.827C78.9344 109.562 76.2878 106.916 73.0231 106.916C69.7584 106.916 67.1118 109.562 67.1118 112.827C67.1118 116.092 69.7584 118.738 73.0231 118.738Z" stroke="#FFA7A7" stroke-miterlimit="10"/>
<path d="M66.9315 37.7925L0 36.0941L3.17863 51.6267L70.1102 53.3251L66.9315 37.7925Z" fill="#FFA7A7"/>
<path d="M91.5161 60.0714L91.4592 25.5619C91.4592 17.6011 86.4587 11.1489 80.2818 11.1489L25.0495 11.1489C18.882 11.1489 13.8816 17.6011 13.8816 25.5619L13.8816 78.6972H13.948L13.948 95.5392C13.948 103.984 18.9484 110.825 25.1159 110.825L80.3482 110.825C86.5157 110.825 91.5256 103.984 91.5256 95.5392V60.0714H91.5161Z" fill="white" stroke="#FFA7A7" stroke-miterlimit="10"/>
<path d="M61.3238 36.1604H61.9596C62.9395 36.1604 63.7339 35.366 63.7339 34.3861V31.6344C63.7339 30.6545 62.9395 29.8601 61.9596 29.8601H61.3238C60.3439 29.8601 59.5495 30.6545 59.5495 31.6344V34.3861C59.5495 35.366 60.3439 36.1604 61.3238 36.1604Z" fill="#FFA7A7"/>
<path d="M45.4022 36.1604H46.0379C47.0179 36.1604 47.8123 35.366 47.8123 34.3861V31.6344C47.8123 30.6545 47.0179 29.8601 46.0379 29.8601H45.4022C44.4223 29.8601 43.6279 30.6545 43.6279 31.6344V34.3861C43.6279 35.366 44.4223 36.1604 45.4022 36.1604Z" fill="#FFA7A7"/>
<path d="M55.0426 50.2602C54.7497 48.7798 53.9813 47.4356 52.8544 46.4319C51.7274 45.4283 50.3035 44.8201 48.7992 44.7C47.0208 44.4536 45.2154 44.8931 43.7492 45.9292C42.2831 46.9654 41.2662 48.5206 40.9048 50.2792C40.7393 51.5333 40.2916 52.7337 39.5954 53.7899C37.7441 56.2895 35.086 58.0728 32.071 58.8378C32.071 58.8378 47.6795 61.8266 53.2303 55.6496C53.9407 54.9612 54.4759 54.1127 54.7912 53.1751C55.1065 52.2375 55.1927 51.238 55.0426 50.2602Z" fill="#FFA7A7"/>
<path d="M52.3287 50.2603C52.6202 48.7792 53.3881 47.4341 54.5153 46.4302C55.6426 45.4263 57.0673 44.8187 58.5721 44.7C60.349 44.4562 62.152 44.8969 63.6161 45.9329C65.0801 46.9688 66.0957 48.5225 66.457 50.2792C66.6225 51.5334 67.0702 52.7337 67.7664 53.79C69.6193 56.2879 72.2767 58.0707 75.2908 58.8378C75.2908 58.8378 59.6823 61.8267 54.1315 55.6497C53.4202 54.9622 52.8851 54.1135 52.5712 53.1754C52.2574 52.2373 52.1742 51.2374 52.3287 50.2603Z" fill="#FFA7A7"/>
<path d="M26.6721 78.346V74.3039H35.6482V78.3745H33.3899V83.4982H28.9209V78.3745L26.6721 78.346Z" fill="#FFA7A7"/>
<path d="M41.0092 77.8053C41.1825 77.3412 41.4915 76.9401 41.896 76.6541C42.3004 76.3681 42.7817 76.2105 43.2769 76.2018C43.7766 76.181 44.2642 76.3584 44.6338 76.6952C44.809 76.8526 44.948 77.046 45.0414 77.2622C45.1347 77.4784 45.1802 77.7122 45.1746 77.9476C45.1838 78.1882 45.141 78.428 45.0493 78.6507C44.9577 78.8733 44.8192 79.0736 44.6433 79.2381C44.4591 79.406 44.2436 79.536 44.0092 79.6207C43.7748 79.7053 43.5259 79.743 43.2769 79.7315C42.9699 79.7369 42.6648 79.681 42.3797 79.5669C42.0945 79.4529 41.8351 79.283 41.6165 79.0673C41.3898 79.2934 41.2173 79.568 41.1121 79.8704C41.0069 80.1728 40.9717 80.4952 41.0092 80.8131V83.5174H36.9197V76.2018H41.0092V77.8053Z" fill="#FFA7A7"/>
<path d="M46.3132 79.2V77.0176C47.5367 76.4256 48.8824 76.1298 50.2414 76.1542C51.3321 76.0691 52.4193 76.3568 53.3251 76.9702C53.6708 77.2803 53.9404 77.6659 54.1132 78.097C54.286 78.5281 54.3572 78.9931 54.3214 79.4561V83.4698H50.2319V82.9289C49.645 83.3294 48.9498 83.5412 48.2393 83.5362C47.683 83.5552 47.1402 83.3619 46.7212 82.9953C46.5246 82.8287 46.3674 82.6206 46.2607 82.386C46.1541 82.1514 46.1007 81.8961 46.1044 81.6385C46.103 81.3423 46.1708 81.0498 46.3026 80.7846C46.4344 80.5193 46.6265 80.2886 46.8635 80.1108C47.4362 79.6978 48.1317 79.4905 48.8371 79.5226C49.3073 79.5217 49.7758 79.579 50.2319 79.6934C50.2311 79.5371 50.1917 79.3834 50.1172 79.246C50.0427 79.1086 49.9354 78.9918 49.8049 78.9058C49.4459 78.6971 49.0335 78.5981 48.6189 78.6212C47.8158 78.6328 47.0265 78.8309 46.3132 79.2ZM50.2319 81.8662V80.8604C50.0142 80.7895 49.7872 80.7511 49.5582 80.7466C49.3486 80.7369 49.1418 80.797 48.9699 80.9174C48.8975 80.9688 48.8388 81.0372 48.7991 81.1166C48.7594 81.1961 48.7399 81.284 48.7422 81.3728C48.7404 81.4679 48.7609 81.5621 48.8021 81.6478C48.8433 81.7335 48.904 81.8083 48.9794 81.8662C49.1553 82.003 49.3736 82.0735 49.5962 82.0655C49.8212 82.0807 50.0448 82.0206 50.2319 81.8947V81.8662Z" fill="#FFA7A7"/>
<path d="M55.1089 76.2016H59.1984L60.0808 78.0518L60.9538 76.2016H65.0338L61.58 83.4508H58.5627L55.1089 76.2016Z" fill="#FFA7A7"/>
<path d="M74.0194 80.7087V81.9801C73.541 82.5247 72.9442 82.9524 72.2747 83.2303C71.6053 83.5083 70.881 83.6292 70.1576 83.5837C68.9541 83.6441 67.7689 83.2704 66.8177 82.5305C66.4307 82.1944 66.1185 81.7809 65.9013 81.3166C65.6842 80.8524 65.5669 80.3477 65.5571 79.8352C65.5472 79.3228 65.6451 78.814 65.8442 78.3417C66.0434 77.8694 66.3395 77.4442 66.7133 77.0936C67.5554 76.3864 68.6321 76.0208 69.7306 76.0688C70.3246 76.0629 70.9152 76.1592 71.4765 76.3535C71.9988 76.5317 72.4751 76.8233 72.8713 77.2075C73.2588 77.5675 73.5575 78.0125 73.7443 78.5074C73.9403 79.091 74.0334 79.7042 74.0194 80.3197H69.8445C69.9915 80.6857 70.2594 80.9904 70.6036 81.1831C70.9689 81.396 71.3858 81.5043 71.8086 81.4962C72.6202 81.5333 73.414 81.2505 74.0194 80.7087ZM69.5504 79.0482H71.448C71.449 78.7414 71.3452 78.4435 71.1539 78.2037C71.0677 78.1055 70.961 78.0273 70.8413 77.9749C70.7217 77.9224 70.5919 77.8969 70.4612 77.9001C70.3372 77.898 70.2142 77.9233 70.1011 77.9742C69.9879 78.025 69.8874 78.1002 69.8065 78.1943C69.6124 78.4343 69.5204 78.741 69.5504 79.0482Z" fill="#FFA7A7"/>
<path d="M80.016 83.4698H75.917V74.3039H80.0065L80.016 83.4698Z" fill="#FFA7A7"/>
<path d="M27.3835 93.964V84.7412H31.7292L33.551 86.6389L35.3823 84.7412H39.7185V93.9355H35.2495V89.3336L33.551 91.108L31.8621 89.3336V93.9355L27.3835 93.964Z" fill="#FFA7A7"/>
<path d="M42.1953 89.6943V87.5119C43.4188 86.9199 44.7645 86.6241 46.1235 86.6485C47.2148 86.5564 48.3043 86.8447 49.2072 87.4645C49.5534 87.7742 49.8235 88.1597 49.9963 88.5909C50.1691 89.0221 50.24 89.4874 50.2035 89.9505V93.9641H46.114V93.4232C45.5242 93.8165 44.8303 94.0247 44.1214 94.021C43.5669 94.0389 43.0256 93.8495 42.6032 93.4897C42.4066 93.3215 42.2501 93.1116 42.145 92.8752C42.0399 92.6388 41.989 92.3819 41.996 92.1233C41.9895 91.8286 42.0543 91.5367 42.1848 91.2724C42.3153 91.0081 42.5077 90.7792 42.7456 90.6052C43.3183 90.1922 44.0138 89.9848 44.7192 90.0169C45.1894 90.016 45.6579 90.0734 46.114 90.1877C46.1196 90.0303 46.0829 89.8742 46.0079 89.7357C45.9328 89.5972 45.822 89.4814 45.687 89.4001C45.3279 89.1914 44.9156 89.0925 44.5009 89.1155C43.6979 89.1271 42.9086 89.3252 42.1953 89.6943ZM46.114 92.3605V91.3832C45.8962 91.3123 45.6692 91.2739 45.4403 91.2694C45.2288 91.2561 45.0197 91.3202 44.852 91.4497C44.7796 91.501 44.7209 91.5695 44.6812 91.6489C44.6415 91.7283 44.6219 91.8163 44.6243 91.9051C44.6224 92.0002 44.6429 92.0943 44.6841 92.18C44.7253 92.2657 44.7861 92.3406 44.8615 92.3985C45.0373 92.5353 45.2557 92.6058 45.4782 92.5978C45.7146 92.586 45.9395 92.492 46.114 92.3321V92.3605Z" fill="#FFA7A7"/>
<path d="M56.4469 84.7412V89.0869C56.9387 88.9184 57.359 88.5886 57.6398 88.1511C57.9205 87.7136 58.0452 87.1941 57.9936 86.6768H62.0451C62.0047 87.305 61.8368 87.9184 61.5517 88.4797C61.2623 88.9784 60.8551 89.3987 60.3657 89.7037C60.9754 90.1255 61.4447 90.7204 61.713 91.4116C61.8504 91.7551 61.9398 92.1159 61.9787 92.4838C62.0306 92.9659 62.0528 93.4507 62.0451 93.9355H57.9936C58.0395 93.0935 57.9136 92.2509 57.6235 91.459C57.5128 91.2061 57.3512 90.9788 57.1487 90.791C56.9463 90.6033 56.7074 90.4593 56.4469 90.3678V93.9355H52.3574V84.7412H56.4469Z" fill="#FFA7A7"/>
<path d="M71.6377 91.1935V92.4649C71.1592 93.0125 70.5612 93.4428 69.89 93.7225C69.2187 94.0021 68.4921 94.1238 67.7664 94.078C66.5631 94.1367 65.3784 93.7631 64.4265 93.0247C64.019 92.6896 63.6934 92.2657 63.4747 91.7855C63.256 91.3054 63.1499 90.7816 63.1645 90.2541C63.1488 89.7518 63.2445 89.2523 63.4446 88.7913C63.6448 88.3304 63.9444 87.9194 64.3221 87.5879C65.1614 86.8748 66.2392 86.5054 67.3394 86.5536C67.9374 86.5461 68.5319 86.6457 69.0948 86.8478C69.6137 87.0286 70.0888 87.3163 70.4896 87.6922C70.8745 88.0563 71.1701 88.5044 71.353 89.0017C71.5571 89.5802 71.6536 90.1912 71.6377 90.8045H67.4628C67.6055 91.1726 67.8701 91.4807 68.2124 91.6774C68.5811 91.8906 69.0011 91.9989 69.4269 91.9905C70.2401 92.0271 71.0348 91.7406 71.6377 91.1935ZM67.2161 89.533H69.1138C69.1118 89.2267 69.0083 88.9298 68.8196 88.6885C68.7313 88.5982 68.6257 88.5264 68.5092 88.4773C68.3927 88.4283 68.2676 88.4031 68.1412 88.4031C68.0148 88.4031 67.8897 88.4283 67.7732 88.4773C67.6567 88.5264 67.5511 88.5982 67.4628 88.6885C67.2762 88.9284 67.188 89.2304 67.2161 89.533Z" fill="#FFA7A7"/>
<path d="M77.663 88.2995C77.8257 87.8266 78.1294 87.4148 78.5331 87.1197C78.9368 86.8245 79.4213 86.6601 79.9213 86.6485C80.1703 86.637 80.4191 86.6746 80.6535 86.7593C80.888 86.844 81.1034 86.974 81.2876 87.1419C81.4628 87.2993 81.6018 87.4927 81.6952 87.7089C81.7885 87.9251 81.834 88.159 81.8284 88.3944C81.8363 88.6349 81.793 88.8742 81.7014 89.0967C81.6098 89.3192 81.472 89.5196 81.2971 89.6848C80.9186 90.0185 80.4253 90.192 79.9213 90.1687C79.6165 90.1737 79.3138 90.1184 79.0305 90.006C78.7472 89.8937 78.4888 89.7265 78.2703 89.514C78.0418 89.7389 77.8682 90.0133 77.7629 90.3161C77.6576 90.6189 77.6234 90.9418 77.663 91.2599V93.9641H73.5735V86.7055H77.663V88.2995Z" fill="#FFA7A7"/>
</g>
<defs>
<clipPath id="clip0_205_4075">
<rect width="92" height="119.222" fill="white"/>
</clipPath>
</defs>
</svg>
